<svg xmlns="http://www.w3.org/2000/svg" viewBox="0 0 512 512">
  <!-- White background with rounded corners -->
  <rect width="512" height="512" rx="115" fill="#ffffff"/>
  <!-- McDonald's golden arches M - accurate shape -->
  <path d="
    M 96,390
    L 96,160
    C 96,105 128,80 168,80
    C 208,80 232,112 256,155
    C 280,112 304,80 344,80
    C 384,80 416,105 416,160
    L 416,390
    L 370,390
    L 370,168
    C 370,140 358,122 344,122
    C 322,122 302,160 280,215
    C 270,240 262,268 256,295
    C 250,268 242,240 232,215
    C 210,160 190,122 168,122
    C 154,122 142,140 142,168
    L 142,390
    Z
  " fill="#FFC72C"/>
</svg>
